<svg id="图层_1" data-name="图层 1" xmlns="http://www.w3.org/2000/svg" viewBox="0 0 329.29 69.67"><defs><style>.cls-1{fill:#39b54a;}</style></defs><title>oceco-logo</title><path class="cls-1" d="M309.42,267.49a34.83,34.83,0,0,0-43.23,53.95Z" transform="translate(-256.31 -262.31)"/><path class="cls-1" d="M316.11,272.84l-43.23,54a34.83,34.83,0,0,0,43.23-54Z" transform="translate(-256.31 -262.31)"/><path class="cls-1" d="M383.51,267.45A34.83,34.83,0,0,0,340.4,321.5Z" transform="translate(-256.31 -262.31)"/><path class="cls-1" d="M366.27,302.81l-19.17,24A34.84,34.84,0,0,0,390,321.73Z" transform="translate(-256.31 -262.31)"/><path class="cls-1" d="M569,267.49a34.83,34.83,0,0,0-43.23,53.95Z" transform="translate(-256.31 -262.31)"/><path class="cls-1" d="M575.73,272.84l-43.23,54a34.83,34.83,0,0,0,43.23-54Z" transform="translate(-256.31 -262.31)"/><path class="cls-1" d="M509.45,267.45a34.83,34.83,0,0,0-43.11,54.05Z" transform="translate(-256.31 -262.31)"/><path class="cls-1" d="M492.21,302.81l-19.17,24a34.84,34.84,0,0,0,42.89-5.11Z" transform="translate(-256.31 -262.31)"/><rect class="cls-1" x="138.26" y="51.64" width="59.61" height="16.47"/><rect class="cls-1" x="138.26" y="26.6" width="47.11" height="16.47"/><rect class="cls-1" x="138.26" y="1.57" width="59.61" height="16.47"/></svg>